<mxfile host="app.diagrams.net" agent="Mozilla/5.0 (Macintosh; Intel Mac OS X 10_15_7) AppleWebKit/605.1.15 (KHTML, like Gecko) Version/18.5 Safari/605.1.15" version="28.0.6">
  <diagram name="Casos de Uso VitalCare PRO" id="vsO59sx7lNHWzerqpSrA">
    <mxGraphModel dx="1871" dy="1071" grid="1" gridSize="10" guides="1" tooltips="1" connect="1" arrows="1" fold="1" page="1" pageScale="1" pageWidth="827" pageHeight="1169" math="0" shadow="0">
      <root>
        <mxCell id="0" />
        <mxCell id="1" parent="0" />
        <mxCell id="3XRxC858_gof-i1tiyCK-1" value="Paciente" style="swimlane;horizontal=0;rounded=0;fontStyle=1;fillColor=#F5FBFF;strokeColor=#B0CDE8;" vertex="1" parent="1">
          <mxGeometry x="10" y="100" width="260" height="660" as="geometry" />
        </mxCell>
        <mxCell id="3XRxC858_gof-i1tiyCK-2" value="Paciente" style="shape=umlActor;verticalLabelPosition=bottom;verticalAlign=top;" vertex="1" parent="3XRxC858_gof-i1tiyCK-1">
          <mxGeometry x="40" y="220" width="60" height="105" as="geometry" />
        </mxCell>
        <mxCell id="3XRxC858_gof-i1tiyCK-29" style="endArrow=block;edgeStyle=orthogonalEdgeStyle;exitX=0.5;exitY=0.5;exitDx=0;exitDy=0;exitPerimeter=0;" edge="1" parent="3XRxC858_gof-i1tiyCK-1" source="3XRxC858_gof-i1tiyCK-2" target="3XRxC858_gof-i1tiyCK-9">
          <mxGeometry relative="1" as="geometry">
            <Array as="points">
              <mxPoint x="120" y="273" />
              <mxPoint x="120" y="420" />
              <mxPoint x="420" y="420" />
            </Array>
          </mxGeometry>
        </mxCell>
        <mxCell id="3XRxC858_gof-i1tiyCK-3" value="Núcleo Sistema" style="swimlane;horizontal=0;rounded=0;fontStyle=1;fillColor=#FFFFFF;strokeColor=#B0B0B0;" vertex="1" parent="1">
          <mxGeometry x="270" y="90" width="680" height="660" as="geometry" />
        </mxCell>
        <mxCell id="3XRxC858_gof-i1tiyCK-4" value="" style="rounded=1;dashed=1;strokeColor=#888888;fillColor=none;fontStyle=1;" vertex="1" parent="3XRxC858_gof-i1tiyCK-3">
          <mxGeometry x="30" y="50" width="640" height="610" as="geometry" />
        </mxCell>
        <mxCell id="3XRxC858_gof-i1tiyCK-5" value="Activar SOS" style="ellipse;whiteSpace=wrap;html=1;fillColor=#E6F4FF;strokeColor=#2580C2;" vertex="1" parent="3XRxC858_gof-i1tiyCK-4">
          <mxGeometry x="40" y="40" width="140" height="50" as="geometry" />
        </mxCell>
        <mxCell id="3XRxC858_gof-i1tiyCK-6" value="Enviar Ubicación SOS" style="ellipse;whiteSpace=wrap;html=1;fillColor=#E6F4FF;strokeColor=#2580C2;" vertex="1" parent="3XRxC858_gof-i1tiyCK-4">
          <mxGeometry x="230" y="20" width="180" height="50" as="geometry" />
        </mxCell>
        <mxCell id="3XRxC858_gof-i1tiyCK-7" value="Recibir Recordatorio" style="ellipse;whiteSpace=wrap;html=1;fillColor=#E6F4FF;strokeColor=#2580C2;" vertex="1" parent="3XRxC858_gof-i1tiyCK-4">
          <mxGeometry x="40" y="120" width="180" height="50" as="geometry" />
        </mxCell>
        <mxCell id="3XRxC858_gof-i1tiyCK-8" value="Reproducir Mensaje" style="ellipse;whiteSpace=wrap;html=1;fillColor=#E6F4FF;strokeColor=#2580C2;" vertex="1" parent="3XRxC858_gof-i1tiyCK-4">
          <mxGeometry x="40" y="200" width="180" height="50" as="geometry" />
        </mxCell>
        <mxCell id="3XRxC858_gof-i1tiyCK-9" value="Registrar Signos Vitales" style="ellipse;whiteSpace=wrap;html=1;fillColor=#E6F4FF;strokeColor=#2580C2;" vertex="1" parent="3XRxC858_gof-i1tiyCK-4">
          <mxGeometry x="40" y="280" width="200" height="50" as="geometry" />
        </mxCell>
        <mxCell id="3XRxC858_gof-i1tiyCK-11" value="Generar Alerta Automática" style="ellipse;whiteSpace=wrap;html=1;fillColor=#F0F9FF;strokeColor=#3A91D8;" vertex="1" parent="3XRxC858_gof-i1tiyCK-4">
          <mxGeometry x="300" y="130" width="220" height="50" as="geometry" />
        </mxCell>
        <mxCell id="3XRxC858_gof-i1tiyCK-44" value="" style="edgeStyle=orthogonalEdgeStyle;rounded=0;orthogonalLoop=1;jettySize=auto;html=1;entryX=1;entryY=0;entryDx=0;entryDy=0;" edge="1" parent="3XRxC858_gof-i1tiyCK-4" source="3XRxC858_gof-i1tiyCK-12" target="3XRxC858_gof-i1tiyCK-9">
          <mxGeometry relative="1" as="geometry">
            <Array as="points">
              <mxPoint x="240" y="235" />
              <mxPoint x="240" y="288" />
            </Array>
          </mxGeometry>
        </mxCell>
        <mxCell id="3XRxC858_gof-i1tiyCK-12" value="Ver Signos Vitales" style="ellipse;whiteSpace=wrap;html=1;fillColor=#E6F4FF;strokeColor=#2580C2;" vertex="1" parent="3XRxC858_gof-i1tiyCK-4">
          <mxGeometry x="320" y="240" width="180" height="50" as="geometry" />
        </mxCell>
        <mxCell id="3XRxC858_gof-i1tiyCK-13" value="Configurar Recordatorios" style="ellipse;whiteSpace=wrap;html=1;fillColor=#E6F4FF;strokeColor=#2580C2;" vertex="1" parent="3XRxC858_gof-i1tiyCK-4">
          <mxGeometry x="320" y="320" width="200" height="50" as="geometry" />
        </mxCell>
        <mxCell id="3XRxC858_gof-i1tiyCK-14" value="Configurar Umbrales" style="ellipse;whiteSpace=wrap;html=1;fillColor=#E6F4FF;strokeColor=#2580C2;" vertex="1" parent="3XRxC858_gof-i1tiyCK-4">
          <mxGeometry x="300" y="420" width="200" height="50" as="geometry" />
        </mxCell>
        <mxCell id="3XRxC858_gof-i1tiyCK-15" value="Enviar Mensaje (texto/voz)" style="ellipse;whiteSpace=wrap;html=1;fillColor=#E6F4FF;strokeColor=#2580C2;" vertex="1" parent="3XRxC858_gof-i1tiyCK-4">
          <mxGeometry x="310" y="510" width="220" height="50" as="geometry" />
        </mxCell>
        <mxCell id="3XRxC858_gof-i1tiyCK-16" value="&lt;&lt;include&gt;&gt;" style="text;whiteSpace=wrap;html=1;fontSize=11;fontColor=#555555;" vertex="1" parent="3XRxC858_gof-i1tiyCK-4">
          <mxGeometry x="190" y="55" width="70" height="20" as="geometry" />
        </mxCell>
        <mxCell id="3XRxC858_gof-i1tiyCK-17" value="&lt;&lt;include&gt;&gt;" style="text;whiteSpace=wrap;html=1;fontSize=11;fontColor=#555555;" vertex="1" parent="3XRxC858_gof-i1tiyCK-4">
          <mxGeometry x="250" y="305" width="70" height="20" as="geometry" />
        </mxCell>
        <mxCell id="3XRxC858_gof-i1tiyCK-19" style="dashed=1;endArrow=open;edgeStyle=elbowEdgeStyle;" edge="1" parent="3XRxC858_gof-i1tiyCK-4" source="3XRxC858_gof-i1tiyCK-5" target="3XRxC858_gof-i1tiyCK-6">
          <mxGeometry relative="1" as="geometry" />
        </mxCell>
        <mxCell id="3XRxC858_gof-i1tiyCK-21" style="dashed=1;endArrow=open;edgeStyle=elbowEdgeStyle;" edge="1" parent="3XRxC858_gof-i1tiyCK-4" source="3XRxC858_gof-i1tiyCK-14" target="3XRxC858_gof-i1tiyCK-11">
          <mxGeometry relative="1" as="geometry">
            <Array as="points">
              <mxPoint x="280" y="410" />
            </Array>
          </mxGeometry>
        </mxCell>
        <mxCell id="3XRxC858_gof-i1tiyCK-22" value="NFR Rendimiento:\nSOS &lt; 3 seg" style="note;whiteSpace=wrap;html=1;fillColor=#FFF2CC;strokeColor=#D6B656;fontSize=12" vertex="1" parent="3XRxC858_gof-i1tiyCK-4">
          <mxGeometry x="510" y="20" width="60" height="50" as="geometry" />
        </mxCell>
        <mxCell id="3XRxC858_gof-i1tiyCK-23" value="NFR Usabilidad:\nTexto grande / vibración" style="note;whiteSpace=wrap;html=1;fillColor=#FFF2CC;strokeColor=#D6B656;fontSize=12" vertex="1" parent="3XRxC858_gof-i1tiyCK-4">
          <mxGeometry x="140" y="370" width="120" height="70" as="geometry" />
        </mxCell>
        <mxCell id="3XRxC858_gof-i1tiyCK-24" value="NFR Seguridad:\nDatos cifrados" style="note;whiteSpace=wrap;html=1;fillColor=#FFF2CC;strokeColor=#D6B656;fontSize=12" vertex="1" parent="3XRxC858_gof-i1tiyCK-4">
          <mxGeometry x="540" y="130" width="80" height="50" as="geometry" />
        </mxCell>
        <mxCell id="3XRxC858_gof-i1tiyCK-25" value="NFR Disponibilidad:\nServicio 24/7" style="note;whiteSpace=wrap;html=1;fillColor=#FFF2CC;strokeColor=#D6B656;fontSize=12" vertex="1" parent="3XRxC858_gof-i1tiyCK-4">
          <mxGeometry x="545" y="540" width="70" height="50" as="geometry" />
        </mxCell>
        <mxCell id="3XRxC858_gof-i1tiyCK-10" value="Enviar Signos Vitales a Nube" style="ellipse;whiteSpace=wrap;html=1;fillColor=#F0F9FF;strokeColor=#3A91D8;" vertex="1" parent="3XRxC858_gof-i1tiyCK-4">
          <mxGeometry x="380" y="80" width="180" height="40" as="geometry" />
        </mxCell>
        <mxCell id="3XRxC858_gof-i1tiyCK-20" style="dashed=1;endArrow=open;edgeStyle=elbowEdgeStyle;" edge="1" parent="3XRxC858_gof-i1tiyCK-4" source="3XRxC858_gof-i1tiyCK-9" target="3XRxC858_gof-i1tiyCK-10">
          <mxGeometry relative="1" as="geometry" />
        </mxCell>
        <mxCell id="3XRxC858_gof-i1tiyCK-34" value="Tutor" style="swimlane;horizontal=0;rounded=0;fontStyle=1;fillColor=#F5FBFF;strokeColor=#B0CDE8;" vertex="1" parent="1">
          <mxGeometry x="950" y="90" width="260" height="660" as="geometry" />
        </mxCell>
        <mxCell id="3XRxC858_gof-i1tiyCK-35" value="" style="shape=umlActor;verticalLabelPosition=bottom;verticalAlign=top;" vertex="1" parent="3XRxC858_gof-i1tiyCK-34">
          <mxGeometry x="150" y="290" width="60" height="105" as="geometry" />
        </mxCell>
        <mxCell id="3XRxC858_gof-i1tiyCK-36" value="Servicios Externos" style="swimlane;horizontal=0;rounded=0;fontStyle=1;fillColor=#FFF9F2;strokeColor=#E8C9A8;" vertex="1" parent="1">
          <mxGeometry x="1210" y="90" width="300" height="660" as="geometry" />
        </mxCell>
        <mxCell id="3XRxC858_gof-i1tiyCK-37" value="Servicio Nube/GPS" style="shape=umlActor;verticalLabelPosition=bottom;verticalAlign=top;" vertex="1" parent="3XRxC858_gof-i1tiyCK-36">
          <mxGeometry x="100" y="100" width="55" height="100" as="geometry" />
        </mxCell>
        <mxCell id="3XRxC858_gof-i1tiyCK-42" value="Diagrama de Casos de Uso – VitalCare Watch" style="text;fontSize=24;fontStyle=1" vertex="1" parent="1">
          <mxGeometry x="400" y="20" width="800" height="40" as="geometry" />
        </mxCell>
        <mxCell id="3XRxC858_gof-i1tiyCK-26" style="endArrow=block;edgeStyle=orthogonalEdgeStyle;" edge="1" parent="1" source="3XRxC858_gof-i1tiyCK-2" target="3XRxC858_gof-i1tiyCK-5">
          <mxGeometry relative="1" as="geometry">
            <Array as="points">
              <mxPoint x="80" y="165" />
              <mxPoint x="410" y="165" />
            </Array>
          </mxGeometry>
        </mxCell>
        <mxCell id="3XRxC858_gof-i1tiyCK-27" style="endArrow=block;edgeStyle=orthogonalEdgeStyle;" edge="1" parent="1" source="3XRxC858_gof-i1tiyCK-2" target="3XRxC858_gof-i1tiyCK-7">
          <mxGeometry relative="1" as="geometry">
            <Array as="points">
              <mxPoint x="80" y="285" />
            </Array>
          </mxGeometry>
        </mxCell>
        <mxCell id="3XRxC858_gof-i1tiyCK-28" style="endArrow=block;edgeStyle=orthogonalEdgeStyle;exitX=0.496;exitY=0.425;exitDx=0;exitDy=0;exitPerimeter=0;" edge="1" parent="1" source="3XRxC858_gof-i1tiyCK-2" target="3XRxC858_gof-i1tiyCK-8">
          <mxGeometry relative="1" as="geometry">
            <mxPoint x="90" y="366" as="sourcePoint" />
            <Array as="points">
              <mxPoint x="130" y="365" />
              <mxPoint x="130" y="325" />
              <mxPoint x="430" y="325" />
            </Array>
          </mxGeometry>
        </mxCell>
        <mxCell id="3XRxC858_gof-i1tiyCK-30" style="endArrow=block;edgeStyle=orthogonalEdgeStyle;" edge="1" parent="1" source="3XRxC858_gof-i1tiyCK-35">
          <mxGeometry relative="1" as="geometry">
            <mxPoint x="760" y="380" as="targetPoint" />
            <Array as="points">
              <mxPoint x="1120" y="360" />
              <mxPoint x="760" y="360" />
            </Array>
          </mxGeometry>
        </mxCell>
        <mxCell id="3XRxC858_gof-i1tiyCK-31" style="endArrow=block;edgeStyle=orthogonalEdgeStyle;exitX=0.5;exitY=0.5;exitDx=0;exitDy=0;exitPerimeter=0;" edge="1" parent="1" source="3XRxC858_gof-i1tiyCK-35" target="3XRxC858_gof-i1tiyCK-13">
          <mxGeometry relative="1" as="geometry">
            <Array as="points">
              <mxPoint x="1030" y="450" />
              <mxPoint x="1030" y="485" />
            </Array>
          </mxGeometry>
        </mxCell>
        <mxCell id="3XRxC858_gof-i1tiyCK-32" style="endArrow=block;edgeStyle=orthogonalEdgeStyle;exitX=0.495;exitY=0.675;exitDx=0;exitDy=0;exitPerimeter=0;" edge="1" parent="1" source="3XRxC858_gof-i1tiyCK-35" target="3XRxC858_gof-i1tiyCK-14">
          <mxGeometry relative="1" as="geometry">
            <mxPoint x="1120" y="450" as="sourcePoint" />
            <Array as="points">
              <mxPoint x="1130" y="540" />
              <mxPoint x="710" y="540" />
            </Array>
          </mxGeometry>
        </mxCell>
        <mxCell id="3XRxC858_gof-i1tiyCK-33" style="endArrow=block;edgeStyle=orthogonalEdgeStyle;" edge="1" parent="1" target="3XRxC858_gof-i1tiyCK-15">
          <mxGeometry relative="1" as="geometry">
            <mxPoint x="1130" y="450" as="sourcePoint" />
            <Array as="points">
              <mxPoint x="1130" y="620" />
              <mxPoint x="750" y="620" />
            </Array>
          </mxGeometry>
        </mxCell>
        <mxCell id="3XRxC858_gof-i1tiyCK-39" style="endArrow=block;edgeStyle=orthogonalEdgeStyle;" edge="1" parent="1" source="3XRxC858_gof-i1tiyCK-37" target="3XRxC858_gof-i1tiyCK-10">
          <mxGeometry relative="1" as="geometry">
            <Array as="points">
              <mxPoint x="1090" y="250" />
              <mxPoint x="1090" y="250" />
            </Array>
          </mxGeometry>
        </mxCell>
        <mxCell id="3XRxC858_gof-i1tiyCK-40" style="endArrow=block;edgeStyle=orthogonalEdgeStyle;" edge="1" parent="1" source="3XRxC858_gof-i1tiyCK-37" target="3XRxC858_gof-i1tiyCK-6">
          <mxGeometry relative="1" as="geometry">
            <Array as="points">
              <mxPoint x="1330" y="110" />
              <mxPoint x="650" y="110" />
            </Array>
          </mxGeometry>
        </mxCell>
      </root>
    </mxGraphModel>
  </diagram>
</mxfile>
